<svg width="165" height="100" enable-background="new 0 0 256 191" fill="#000000" version="1.1" viewBox="0 0 52.8 23.875" xml:space="preserve" xmlns="http://www.w3.org/2000/svg">
<path d="m44.729 20.975c-2.3458 0-4.2441 1.5571-4.2441 3.4814s1.8983 3.4814 4.2441 3.4814 4.2441-1.5571 4.2441-3.4814-1.8983-3.4814-4.2441-3.4814zm0 4.8149c-0.89111 0-1.6257-0.60258-1.6257-1.3335s0.7346-1.3335 1.6257-1.3335c0.89111 0 1.6257 0.60258 1.6257 1.3335s-0.7346 1.3335-1.6257 1.3335zm7.7043-4.6159h-0.91814v-3.1631c0-1.1141-1.0135-2.1087-2.3871-2.1087h-4.4069c-0.09261 0-0.20177-0.0096-0.26358-0.06015l-6.8678-5.4835c-0.30863-0.25316-0.6841-0.46852-1.1316-0.48124h-4.9578v13.857h7.3449c0.16972 0 0.2816-0.13767 0.3124-0.26434 0.46305-2.1774 2.7779-3.8358 5.5713-3.8358 2.7934 0 5.1084 1.6584 5.5713 3.8358 0.0308 0.13922 0.12697 0.26434 0.29669 0.26434h0.55084c0.8798 0 1.6525-0.61873 1.6525-1.3277v-0.93686c4.19e-4 -0.13939-0.18166-0.29613-0.36688-0.29613zm-11.201-5.2719h-7.5285c-0.18522 0-0.3673-0.14936-0.3673-0.30129v-3.9161c0-0.15193 0.18208-0.30129 0.3673-0.30129h2.3871c0.09261 0 0.27972 0.11429 0.35682 0.165l4.9695 3.9011c0.18522 0.18992 0.10832 0.45253-0.18501 0.45253zm-23.221 5.0707c-2.3458 0-4.2441 1.5571-4.2441 3.4814s1.8983 3.4814 4.2441 3.4814c2.3458 0 4.2441-1.5571 4.2441-3.4814s-1.8983-3.4814-4.2441-3.4814zm0 4.8148c-0.89111 0-1.6257-0.60258-1.6257-1.3335s0.7346-1.3335 1.6257-1.3335c0.89111 0 1.6257 0.60258 1.6257 1.3335s-0.7346 1.3335-1.6257 1.3335zm12.204-11.285v9.232h-6.2929c-0.16972-0.03644-0.30863-0.12495-0.33943-0.26434-0.46305-2.1774-2.7779-3.6876-5.5713-3.6876-2.7934 0-5.1084 1.5101-5.5713 3.6876-0.0308 0.1265-0.16972 0.22773-0.33943 0.26434h-4.1042c-0.82281-0.036437-1.469-0.58367-1.469-1.2586v-4.1639h14.001c-0.67551-0.64881-1.0841-1.4899-1.0841-2.41 0-0.85402 0.35221-1.6402 0.94286-2.2675-4.6774-4.8027-11.29-11.427-13.181-13.673l-1.1082 5.8077 1.1348 0.12134-0.69248 4.3586-0.83098-0.08886c-0.019695 0.10278-0.038762 0.20246-0.056781 0.29613 1.5163 0.5371 2.5323 1.7584 2.5323 3.1361 0 0.17703-0.0176 0.3556-0.05154 0.53624-0.32623 1.6929-2.0999 2.9-4.1287 2.9-0.2156 0-0.43351-0.01444-0.65141-0.04125h-8.415e-4c-1.6324-0.21191-2.8969-1.1711-3.3524-2.3844l1.9892-0.50014c0.23111 0.61254 0.86387 1.0957 1.6881 1.2015h-0.00105c0.11168 0.01444 0.22105 0.02063 0.33063 0.02063 1.0149 0 1.9159-0.60894 2.0758-1.4602 0.018648-0.09247 0.025143-0.18236 0.025143-0.27121 0-0.83254-0.74235-1.5707-1.7791-1.7027-0.27489-0.03507-0.51669-0.15538-0.67991-0.33945-0.16196-0.18407-0.2288-0.40957-0.18606-0.63403 0-8.59e-4 0.085486-0.44308 0.18648-0.97708l-0.63947-0.0684 0.69248-4.3586 1.1589 0.12392 1.319-6.9068c-0.11063-0.13561-0.19486-0.24148-0.2353-0.2982 0.58248-0.074764 4.606-2.4949 4.606-2.4949 3.9097 3.8525 15.536 14.725 19.664 18.565z" fill="#ffc451" stroke-width=".18977"/>
</svg>
