<svg width="165" height="100" version="1.1" viewBox="0 0 105.6 64" xmlns="http://www.w3.org/2000/svg">
 <g transform="matrix(.22982 0 0 .22918 -6.2534 -34.388)" fill="#ffc451">
  <path d="m312.7 175.3v144h-185c22.6 5.8 40.6 23.5 46.7 46h162.6c7.5-27.6 32.8-48 62.7-48s55.2 20.4 62.7 48h24.3v-84.6l-60.2-105.4zm36 14h62.1l54.7 92h-116.8v-83zm-321.49 130 11.5 46h10.25c6.12-22.5 24.09-40.2 46.74-46zm84.49 16c-26.08 0-47.02 20.9-47.02 47s20.94 47 47.02 47c26.1 0 47-20.9 47-47s-20.9-47-47-47zm288 0c-26.1 0-47 20.9-47 47s20.9 47 47 47 47-20.9 47-47-20.9-47-47-47z"/>
  <g transform="translate(19.17 94.888)">
   <path d="m274.96 160.97v-7.445h-11.388c-5.613 0-10.163-4.55-10.163-10.163s4.55-10.163 10.163-10.163h9.818c-3.695-10.271-13.52-17.618-25.062-17.618h-36.021l-29.946-53.473c-2.398-4.284-6.938-6.947-11.848-6.947h-96.852c-6.324 0-11.903 4.483-13.262 10.662l-14.174 62.823v31.848c-6.922 1.639-12.08 7.844-12.08 15.268 0 8.673 7.031 15.706 15.706 15.706h8.612c0-20.565 16.731-37.295 37.295-37.295 20.565 0 37.295 16.731 37.295 37.295h59.106c0-20.565 16.73-37.295 37.295-37.295s37.295 16.731 37.295 37.295h2.975c8.673 0 15.706-7.031 15.706-15.706-1e-3 -6.835-4.375-12.633-10.47-14.792zm-166.66-45.295h-43.38l9.985-45.384h33.395zm45.144 27.433h-16.21c-3.683 0-6.67-2.987-6.67-6.67 0-3.683 2.987-6.67 6.67-6.67h16.211c3.683 0 6.67 2.987 6.67 6.67 0 3.683-2.987 6.67-6.671 6.67zm-29.035-27.433v-45.384h45.193l25.365 45.384z"/>
   <g transform="matrix(.86555 0 0 .84486 132.24 -92.82)">
    <g fill="#ffc451">
     <path d="m113.2 298.37c-21.327 0-38.616 17.289-38.616 38.617 0 21.327 17.289 38.616 38.616 38.616s38.616-17.289 38.616-38.616c0-21.328-17.288-38.617-38.616-38.617zm0 54.258c-8.639 0-15.642-7.003-15.642-15.642s7.003-15.642 15.642-15.642 15.642 7.003 15.642 15.642c-1e-3 8.639-7.003 15.642-15.642 15.642z" fill="#ffc451"/>
    </g>
   </g>
   <g transform="matrix(.86555 0 0 .84486 -2.1857 -92.82)">
    <g fill="#ffc451">
     <path d="m113.2 298.37c-21.327 0-38.616 17.289-38.616 38.617 0 21.327 17.289 38.616 38.616 38.616s38.616-17.289 38.616-38.616c0-21.328-17.288-38.617-38.616-38.617zm0 54.258c-8.639 0-15.642-7.003-15.642-15.642s7.003-15.642 15.642-15.642 15.642 7.003 15.642 15.642c-1e-3 8.639-7.003 15.642-15.642 15.642z" fill="#ffc451"/>
    </g>
   </g>
  </g>
 </g>
</svg>
