<?xml version="1.0" encoding="UTF-8"?>
<!-- Uploaded to: SVG Repo, www.svgrepo.com, Generator: SVG Repo Mixer Tools -->
<svg id="road-accident" width="165" height="100" fill="#000000" version="1.1" viewBox="0 0 3.0938 1.875" xmlns="http://www.w3.org/2000/svg">
 <path d="m2.2756 1.0468-0.16476-0.2647a0.15727 0.12634 0 0 0-0.1348-0.06016h-0.92862a0.15727 0.12634 0 0 0-0.1348 0.06016l-0.16475 0.2647-0.18572 0.13861a0.074889 0.06016 0 0 0-0.023964 0.044037v0.51521a0.074889 0.06016 0 0 0 0.074889 0.06016h0.29955c0.029955 0 0.074889-0.024064 0.074889-0.048128v-0.072192h1.0484v0.06016c0 0.024064 0.029955 0.06016 0.059911 0.06016h0.31453a0.074889 0.06016 0 0 0 0.074889-0.06016v-0.51521a0.074889 0.06016 0 0 0-0.023965-0.044037zm-1.2132-0.20454h0.89866l0.14978 0.24064h-1.1982zm0.074889 0.55347c0 0.024064-0.044933 0.048128-0.074889 0.048128h-0.31453c-0.029955 0-0.059911-0.036096-0.059911-0.06016v-0.13235c0.014978-0.036096 0.044933-0.06016 0.089866-0.048128l0.29955 0.048128c0.029955 0 0.059911 0.036096 0.059911 0.06016zm1.1982-0.012032c0 0.024064-0.029955 0.06016-0.059911 0.06016h-0.31453c-0.029955 0-0.074889-0.024064-0.074889-0.048128v-0.084224c0-0.024064 0.029955-0.06016 0.059911-0.06016l0.29955-0.048128c0.044933-0.012032 0.074889 0.012032 0.089866 0.048128zm-0.74889-0.9024h-0.14978l-0.14978-0.48128h0.44933zm-1.0335-0.2647 0.38942-0.18048 0.16475 0.48128-0.11982 0.048128zm1.5277-0.18048 0.38942 0.18048-0.43435 0.36096-0.1348-0.06016z" fill="#000" stroke-width=".13424"/>
</svg>
