<svg width="165" height="100" fill="currentColor" stroke="currentColor" version="1.1" viewBox="0 0 126.22 76.5" xml:space="preserve" xmlns="http://www.w3.org/2000/svg">
		<path d="m104.69 0.10208c-1.3179 0-2.4504 1.1339-2.4504 2.4095v3.0372c0 1.2959 1.1531 2.4095 2.4504 2.4095h1.6265l-30.043 29.744-0.63855-2.2678c-0.63834-2.1058-2.3063-4.657-6.857-4.1711l-17.647 0.80992-11.964-10.954c-1.462-1.4376-4.0771-3.1992-7.8454-2.2678l-31.217 8.2409v5.4669h0.16473l12.746-3.3814 3.4388 12.048-16.35 4.3331v25.553c1.7915 4.0093 6.3834 6.1151 10.625 4.9814 4.5713-1.2959 7.3512-5.6291 6.5481-10.286l31.546-8.3419c1.462 4.3326 6.3834 6.9045 10.955 5.6287 4.5713-1.2959 7.3512-5.6287 6.5481-10.286l8.9985-2.4095c2.1415-0.62769 3.7683-2.1058 3.0887-4.657l-0.82366-3.0372 35.459-34.847h5.0655v20.896h8.0102v-28.651zm-95.113 72.143c-2.6151 0.80992-5.395-0.80992-6.0333-3.3816-0.63834-2.5713 0.82367-5.143 3.4388-5.7707 0.47361-0.32397 0.82367-0.32397 1.1531-0.32397 2.3063-0.16219 4.4066 1.2959 4.9214 3.5434 0.61775 2.5512-0.86485 5.1229-3.48 5.9328zm12.273-32.64-3.2535-12.209 11.758-3.0372h1.7915c1.6267 0.16198 3.0887 0.9719 4.0771 1.9235l7.8454 7.5727zm36.756 19.458c-2.6151 0.62809-5.395-0.80992-6.0334-3.3812-0.63834-2.5713 0.9884-5.143 3.6035-5.9328 0.32947 0.16219 0.63834 0.16219 0.9884 0 2.3063-0.16178 4.4066 1.2959 4.9214 3.5434 0.61775 2.5516-0.84426 5.1229-3.48 5.7707zm38.403-22.495v25.857c0 2.4091 0.63855 4.3326 4.5713 4.3326h5.5597c0.32969 5.3052 4.9214 9.6384 10.461 9.6384 3.6035 0 6.7131-1.7618 8.4838-4.4952v-39.504c0.16474-0.16198-24.525-0.16198-24.525-0.16198-4.0566 0-4.5508 1.7616-4.5508 4.3331zm20.592 23.791c3.0887 0 5.5597 2.4095 5.5597 5.4669 0 3.0372-2.4502 5.6291-5.5597 5.6291-3.1093 0-5.7245-2.5717-5.7245-5.6291 0.18532-2.8952 2.6357-5.4669 5.7245-5.4669z" fill="#ffc451" stroke-width=".20419"/>
</svg>
