<?xml version="1.0" encoding="UTF-8"?>
<!-- Created with Inkscape (http://www.inkscape.org/) -->
<svg width="180" height="180" version="1.1" viewBox="0 0 47.625 47.625" xmlns="http://www.w3.org/2000/svg">
 <path d="m46.158 31.478h-3.8294c-0.77509-1.2099-2.0746-2.0017-3.5437-2.0017-1.4741 0-2.7716 0.79176-3.5467 2.0017h-3.1569v-1.9571h-1.2615l12.963-22.803h-2.0401l-17.487 22.803h-1.4516v1.9571h-1.8119c0.0027-0.04736 0.0054-0.09558 0.0054-0.14265v-12.792c0-1.4391-1.0838-2.6018-2.4249-2.6018h-9.0969c-1.3385 0-1.8214 0.98554-2.4254 2.6018l-3.242 7.4189h-0.016446c-1.3415 0-2.4284 1.1659-2.4284 2.605v2.9115h-0.20612v2.6056h2.1201v0.01453c0 2.5503 1.929 4.6196 4.3063 4.6196s4.3063-2.0693 4.3063-4.6196v-0.01453h22.585v0.01453c0 2.5503 1.9265 4.6196 4.3058 4.6196 2.3778 0 4.3043-2.0693 4.3043-4.6196v-0.01453h3.0699zm-37.046-13.845 8.8608-0.0029v7.8794h-12.125z" fill="#ffbb38" stroke-width=".51826"/>
</svg>
