<?xml version="1.0" encoding="UTF-8"?>
<svg width="200" height="45" color-interpolation-filters="sRGB" data-v-6805eed4="" version="1.0" viewBox="0 0 200 45" xmlns="http://www.w3.org/2000/svg">
 <g transform="matrix(-.68998 0 0 .69832 246.09 -67.422)" fill="#fff">
  <g transform="translate(65.327 79.234)">
   <path d="m94.964 66.32h-7.653c-1.549-2.254-4.146-3.729-7.082-3.729-2.946 0-5.539 1.475-7.088 3.729h-6.309v-3.646h-2.521l25.907-42.48h-4.077l-34.947 42.48h-2.901v3.646h-3.621c7e-3 -0.088 0.013-0.178 0.013-0.266v-23.831c0-2.681-2.166-4.847-4.846-4.847h-18.18c-2.675 0-3.64 1.836-4.847 4.847l-6.479 13.821h-0.032c-2.681 0-4.853 2.172-4.853 4.853v5.424h-0.412v4.854h4.237v0.025c0 4.751 3.855 8.606 8.606 8.606s8.606-3.855 8.606-8.606v-0.025h45.136v0.025c0 4.751 3.85 8.606 8.605 8.606 4.752 0 8.602-3.855 8.602-8.606v-0.025h6.135zm-74.035-25.793 17.708-7e-3v14.679h-24.232z"/>
   <path d="m88.396 54.799c1.791-1.111 1.938-2.318 1.938-2.318v-29.79l-2.234 3.499v26.285c-0.129 0.157-0.586 0.691-1.971 1.879-1.447 1.246-0.705 4.275 1.417 5.278 0.863 0.407 3.589 0.896 4.737-1.601 1.156-2.49-0.629-3.475-0.629-3.475-0.635 3.733-2.719 3.049-3.221 2.825-0.499-0.219-1.262-1.82-0.037-2.582z"/>
  </g>
 </g>
 <g class="icon-text-wrapper icon-svg-group iconsvg" transform="matrix(1.0341 0 0 1.0466 -68.335 -.26991)" fill="#f6d33c" data-v-6805eed4="">
  <g transform="translate(67)">
   <g class="tp-name iconsvg-namesvg" fill-rule="" data-gra="path-name">
    <g fill="#f6d33c">
     <path transform="translate(-1.31,19.34)" d="m23.16-16h2.39v-2.95h-4.54l-7.58 11.73-7.58-11.73h-4.48v2.95h2.34v13.05h-2.4v2.95h8.14v-2.95h-2.4l-0.03-8.7 5.41 8.61h2.03l5.33-8.5v8.59h-2.37v2.95h8.13v-2.95h-2.39zm16.08 9.62 6.07-9.62h2.9v-2.95h-9.2v2.95h2.46l-4.02 6.41-4.04-6.41h2.51v-2.95h-9.2v2.95h2.87l6.11 9.62v3.43h-2.51v2.95h8.55v-2.95h-2.5zm33.86-0.98c-0.7 2.87-3.04 4.55-5.97 4.55-3.7 0-6.63-2.74-6.63-6.66 0-3.93 2.9-6.67 6.6-6.67 2.96 0 5.47 1.68 6.19 4.55h3.12v-7.36h-3.12v1.95c-1.53-1.53-3.76-2.34-6.38-2.34-5.32 0-9.92 4.15-9.92 9.87 0 5.71 4.68 9.86 10.14 9.86 4.71 0 8.56-3.07 9.42-7.75zm11.5-8.64h2.37v-2.95h-8.11v2.95h2.4v13.05h-2.4v2.95h8.11v-2.95h-2.37zm22.16-2.95h-17.56v6.35h3.01v-3.26h4.1v12.91h-3.18v2.95h9.7v-2.95h-3.18v-12.91h4.1v3.26h3.01zm13.85 12.57 6.07-9.62h2.9v-2.95h-9.19v2.95h2.45l-4.01 6.41-4.05-6.41h2.51v-2.95h-9.19v2.95h2.87l6.1 9.62v3.43h-2.51v2.95h8.56v-2.95h-2.51z"/>
     <g transform="translate(0,22.73)" data-gra="path-name-1">
      <g transform="scale(1.0087)" fill="#f6d33c">
       <path transform="translate(-.94 19.69)" d="m18.81-19.29h-17.87v6.47h3.06v-3.32h4.17v13.13h-3.23v3.01h9.87v-3.01h-3.23v-13.13h4.17v3.32h3.06zm12.31-0.4c-5.56 0-10.04 4.48-10.04 10.04s4.48 10.05 10.04 10.05 10.05-4.49 10.05-10.05-4.49-10.04-10.05-10.04zm0.03 16.91c-3.77 0-6.61-3.09-6.61-6.87 0-3.77 2.84-6.86 6.61-6.86 3.75 0 6.58 3.09 6.58 6.86 0 3.78-2.83 6.87-6.58 6.87zm39.44-13.51h2.16v-3h-9v3h3.29l-3.57 11.24-4.85-14.24h-2.76l-4.85 14.3-3.54-11.3h3.29v-3h-9v3h2.13l5.42 16.4h3.35l4.59-13.27 4.57 13.25v0.02h3.38v-0.05zm9.16 0h2.41v-3h-8.25v3h2.44v13.28h-2.44v3.01h8.25v-3.01h-2.41zm26.99 0v-3h-8.26v3h2.44v10.5l-11.32-13.5h-4.77v3h2.44v13.28h-2.44v3.01h8.26v-3.01h-2.41v-9.96l10.98 12.97h2.66v-16.29zm21.36 5.71h-9.9v2.92h6.47c-0.8 2.78-3.18 4.77-6.33 4.77-3.86 0-6.61-3.01-6.61-6.76 0-4 2.98-6.78 6.78-6.78 3.01 0 5.53 1.7 6.27 4.37h3.21v-7.23h-3.18v2.1c-1.51-1.62-3.75-2.5-6.5-2.5-5.45 0-10.16 4.23-10.16 10.04 0 5.56 4.23 10.05 10.02 10.05 3.12 0 5.53-1.28 7.12-3.32l0.14 2.92h2.67z" fill="#f6d33c"/>
      </g>
     </g>
    </g>
   </g>
  </g>
 </g>
</svg>
