<svg data-v-6805eed4="" version="1.0" xmlns="http://www.w3.org/2000/svg" xmlns:xlink="http://www.w3.org/1999/xlink" width="100%" height="100%" viewBox="0 0 340.000000 250.000000" preserveAspectRatio="xMidYMid meet" color-interpolation-filters="sRGB" style="margin: auto;">
	<rect data-v-6805eed4="" x="0" y="0" width="100%" height="100%" fill="#ffffff" fill-opacity="1" class="background">
	</rect>
	
	<g data-v-6805eed4="" fill="#f6d33c" class="icon-text-wrapper icon-svg-group iconsvg" transform="translate(72.36494445800781,103.50230598449707)">
		<g class="iconsvg-imagesvg" transform="translate(0,1.6111793518066406)">
			<g>
				<rect fill="#f6d33c" fill-opacity="0" stroke-width="2" x="0" y="0" width="60" height="39.77302858354988" class="image-rect">
				</rect>
				<svg filter="url(#colors6777778477)" x="0" y="0" width="60" height="39.77302858354988" filtersec="colorsf2466631375" class="image-svg-svg primary" style="overflow: visible;">
					<svg xmlns="http://www.w3.org/2000/svg" xmlns:xlink="http://www.w3.org/1999/xlink" version="1.1" x="0px" y="0px" viewBox="5.035999774932861 20.194000244140625 89.92799377441406 59.61200714111328" enable-background="new 0 0 100 100" xml:space="preserve">
						<g>
							<path d="M94.964,66.32h-7.653c-1.549-2.254-4.146-3.729-7.082-3.729c-2.946,0-5.539,1.475-7.088,3.729h-6.309v-3.646h-2.521   l25.907-42.48h-4.077l-34.947,42.48h-2.901v3.646h-3.621c0.007-0.088,0.013-0.178,0.013-0.266V42.223   c0-2.681-2.166-4.847-4.846-4.847H21.659c-2.675,0-3.64,1.836-4.847,4.847l-6.479,13.821h-0.032c-2.681,0-4.853,2.172-4.853,4.853   v5.424H5.036v4.854h4.237c0,0.007,0,0.019,0,0.025c0,4.751,3.855,8.606,8.606,8.606s8.606-3.855,8.606-8.606   c0-0.007,0-0.021,0-0.025h45.136c0,0.007,0,0.019,0,0.025c0,4.751,3.85,8.606,8.605,8.606c4.752,0,8.602-3.855,8.602-8.606   c0-0.007,0-0.021,0-0.025h6.135L94.964,66.32L94.964,66.32z M20.929,40.527l17.708-0.007v14.679H14.405L20.929,40.527z">
							</path>
							<path d="M88.396,54.799c1.791-1.111,1.938-2.318,1.938-2.318v-29.79L88.1,26.19v26.285c-0.129,0.157-0.586,0.691-1.971,1.879   c-1.447,1.246-0.705,4.275,1.417,5.278c0.863,0.407,3.589,0.896,4.737-1.601c1.156-2.49-0.629-3.475-0.629-3.475   c-0.635,3.733-2.719,3.049-3.221,2.825C87.934,57.162,87.171,55.561,88.396,54.799z">
							</path>
						</g>
					</svg>
				</svg>
				<defs>
					<filter id="colors6777778477">
						<feColorMatrix type="matrix" values="0 0 0 0 0.9609375  0 0 0 0 0.82421875  0 0 0 0 0.234375  0 0 0 1 0" class="icon-fecolormatrix">
						</feColorMatrix>
					</filter>
					<filter id="colorsf2466631375">
						<feColorMatrix type="matrix" values="0 0 0 0 0.99609375  0 0 0 0 0.99609375  0 0 0 0 0.99609375  0 0 0 1 0" class="icon-fecolormatrix">
						</feColorMatrix>
					</filter>
					<filter id="colorsb5009569468">
						<feColorMatrix type="matrix" values="0 0 0 0 0  0 0 0 0 0  0 0 0 0 0  0 0 0 1 0" class="icon-fecolormatrix">
						</feColorMatrix>
					</filter>
				</defs>
			</g>
		</g>
		<g transform="translate(67,0)">
			<g data-gra="path-name" fill-rule="" class="tp-name iconsvg-namesvg">
				<g transform="scale(1)">
					<g>
						<path d="M23.16-16L25.55-16 25.55-18.95 21.01-18.95 13.43-7.22 5.85-18.95 1.37-18.95 1.37-16 3.71-16 3.71-2.95 1.31-2.95 1.31 0 9.45 0 9.45-2.95 7.05-2.95 7.02-11.65 12.43-3.04 14.46-3.04 19.79-11.54 19.79-2.95 17.42-2.95 17.42 0 25.55 0 25.55-2.95 23.16-2.95ZM39.24-6.38L45.31-16 48.21-16 48.21-18.95 39.01-18.95 39.01-16 41.47-16 37.45-9.59 33.41-16 35.92-16 35.92-18.95 26.72-18.95 26.72-16 29.59-16 35.7-6.38 35.7-2.95 33.19-2.95 33.19 0 41.74 0 41.74-2.95 39.24-2.95ZM73.1-7.36C72.4-4.49 70.06-2.81 67.13-2.81 63.43-2.81 60.5-5.55 60.5-9.47 60.5-13.4 63.4-16.14 67.1-16.14 70.06-16.14 72.57-14.46 73.29-11.59L76.41-11.59 76.41-18.95 73.29-18.95 73.29-17C71.76-18.53 69.53-19.34 66.91-19.34 61.59-19.34 56.99-15.19 56.99-9.47 56.99-3.76 61.67 0.39 67.13 0.39 71.84 0.39 75.69-2.68 76.55-7.36ZM84.6-16L86.97-16 86.97-18.95 78.86-18.95 78.86-16 81.26-16 81.26-2.95 78.86-2.95 78.86 0 86.97 0 86.97-2.95 84.6-2.95ZM106.76-18.95L89.2-18.95 89.2-12.6 92.21-12.6 92.21-15.86 96.31-15.86 96.31-2.95 93.13-2.95 93.13 0 102.83 0 102.83-2.95 99.65-2.95 99.65-15.86 103.75-15.86 103.75-12.6 106.76-12.6ZM120.61-6.38L126.68-16 129.58-16 129.58-18.95 120.39-18.95 120.39-16 122.84-16 118.83-9.59 114.78-16 117.29-16 117.29-18.95 108.1-18.95 108.1-16 110.97-16 117.07-6.38 117.07-2.95 114.56-2.95 114.56 0 123.12 0 123.12-2.95 120.61-2.95Z" transform="translate(-1.309999942779541, 19.34000015258789)">
						</path>
					</g>
		
					<g data-gra="path-name-1" fill="#000000" transform="translate(0,22.73000144958496)">
						<g transform="scale(1.00873)">
							<path d="M18.81-19.29L0.94-19.29 0.94-12.82 4-12.82 4-16.14 8.17-16.14 8.17-3.01 4.94-3.01 4.94 0 14.81 0 14.81-3.01 11.58-3.01 11.58-16.14 15.75-16.14 15.75-12.82 18.81-12.82ZM31.12-19.69C25.56-19.69 21.08-15.21 21.08-9.65 21.08-4.09 25.56 0.4 31.12 0.4 36.68 0.4 41.17-4.09 41.17-9.65 41.17-15.21 36.68-19.69 31.12-19.69ZM31.15-2.78C27.38-2.78 24.54-5.87 24.54-9.65 24.54-13.42 27.38-16.51 31.15-16.51 34.9-16.51 37.73-13.42 37.73-9.65 37.73-5.87 34.9-2.78 31.15-2.78ZM70.59-16.29L72.75-16.29 72.75-19.29 63.75-19.29 63.75-16.29 67.04-16.29 63.47-5.05 58.62-19.29 55.86-19.29 51.01-4.99 47.47-16.29 50.76-16.29 50.76-19.29 41.76-19.29 41.76-16.29 43.89-16.29 49.31 0.11 52.66 0.11 57.25-13.16 61.82 0.09 61.82 0.11 65.2 0.11 65.2 0.06ZM79.75-16.29L82.16-16.29 82.16-19.29 73.91-19.29 73.91-16.29 76.35-16.29 76.35-3.01 73.91-3.01 73.91 0 82.16 0 82.16-3.01 79.75-3.01ZM106.74-16.29L106.74-19.29 98.48-19.29 98.48-16.29 100.92-16.29 100.92-5.79 89.6-19.29 84.83-19.29 84.83-16.29 87.27-16.29 87.27-3.01 84.83-3.01 84.83 0 93.09 0 93.09-3.01 90.68-3.01 90.68-12.97 101.66 0 104.32 0 104.32-16.29ZM128.1-10.58L118.2-10.58 118.2-7.66 124.67-7.66C123.87-4.88 121.49-2.89 118.34-2.89 114.48-2.89 111.73-5.9 111.73-9.65 111.73-13.65 114.71-16.43 118.51-16.43 121.52-16.43 124.04-14.73 124.78-12.06L127.99-12.06 127.99-19.29 124.81-19.29 124.81-17.19C123.3-18.81 121.06-19.69 118.31-19.69 112.86-19.69 108.15-15.46 108.15-9.65 108.15-4.09 112.38 0.4 118.17 0.4 121.29 0.4 123.7-0.88 125.29-2.92L125.43 0 128.1 0Z" transform="translate(-0.9399999976158142, 19.690000534057617)">
							</path>
						</g>
					</g>
				</g>
			</g>
			
		</g>
	</g>
	<defs v-gra="od">
	</defs>
</svg>
